<svg xmlns="http://www.w3.org/2000/svg" width="73" height="88"><g fill="none" fill-rule="evenodd" stroke-width="3.5"><path stroke="#E2231A" stroke-linecap="round" stroke-linejoin="round" d="M2.169 65.704L7.2 45.284s-.722-7.676 4.696-7.864"/><path stroke="#1CCFC9" stroke-linecap="round" stroke-linejoin="round" d="M56.622 41.276s6.053 7.688 1.587 11.63c-4.465 3.941-7.97-6.339-7.97-6.339m-4.59 12.061c.466 2.567.288 5.521-2.309 7.02-2.03 1.172-3.538.21-4.62-1.39"/><path stroke="#1CCFC9" stroke-linecap="round" stroke-linejoin="round" d="M50.672 48.205c1.296 1.793 5.75 8.61 1.482 12.357-4.943 4.34-9.367-7.719-9.367-7.719"/><path stroke="#E2231A" stroke-linecap="round" stroke-linejoin="round" d="M26.743 54.083l-13.73-16.292c-1.969-2.336-1.66-5.852.685-7.813L45.31 3.546c2.346-1.961 5.876-1.655 7.845.682l16.17 19.186c1.968 2.336 1.66 5.852-.686 7.813l-28.812 24.02"/><path stroke="#E2231A" stroke-linecap="round" stroke-linejoin="round" d="M19.006 85.683l15.77-14.778s5.991-4.94 4.654-16.433c0 0 9.588-14.052 3.806-19.257-5.188-4.67-9.228 2.587-10.045 5.003-.951 2.812-8.226 17.48-8.226 17.48"/><path fill="#1CCFC9" stroke="#1CCFC9" d="M54.473 11.603l-2.13-2.54L17.86 37.732l2.133 2.536 34.48-28.665z"/></g></svg>