<svg xmlns="http://www.w3.org/2000/svg" width="74" height="84"><g fill="none" fill-rule="evenodd" stroke-linecap="round" stroke-width="3.5"><g stroke="#E2231A"><path stroke-linejoin="round" d="M46.674 70.243H10.298c-4.31 0-7.837-3.523-7.837-7.829v-52.5c0-4.306 3.526-7.828 7.837-7.828h36.376c4.31 0 7.838 3.522 7.838 7.828v52.5c0 4.306-3.528 7.829-7.838 7.829z"/><path d="M12.77 53.429h5.914m-5.915-9.412h3.99m-3.99-9.412h7.934m-7.934-9.412h31.55M12.5 15.768H44.05"/></g><path d="M41.996 61.682a17.916 17.916 0 0 0 6.014-3.921 17.55 17.55 0 0 0 0-25.055c-7.01-6.918-18.379-6.918-25.39 0a17.55 17.55 0 0 0 0 25.055c5.238 5.169 12.908 6.476 19.376 3.921m12.17-1.489L70.72 76.528a2.897 2.897 0 0 1 0 4.123 2.993 2.993 0 0 1-4.179 0L49.564 63.898" stroke="#1CCFC9" stroke-linejoin="round"/></g></svg>