<svg xmlns="http://www.w3.org/2000/svg" width="84" height="78"><g fill="none" fill-rule="evenodd" stroke-linecap="round" stroke-linejoin="round" stroke-width="3.5"><path stroke="#1CCFC9" d="M44.977 34.202c0-5.771-4.685-10.449-10.465-10.449s-10.465 4.678-10.465 10.449c0 5.77 4.686 10.448 10.465 10.448 5.78 0 10.465-4.678 10.465-10.448z"/><path stroke="#1CCFC9" d="M64.784 30.018L44.475 50.295l-1.254 1.316a12.043 12.043 0 0 1-8.612 3.608 12.05 12.05 0 0 1-9.016-4.039l-.68-.75-6.802-6.791a4.44 4.44 0 0 0-3.352-1.29l-.232-.552c-.855-2.026-3.027-3.12-5.11-2.711l-1.14.326a5.092 5.092 0 0 1-.852.077c-2.817 0-5.101-2.28-5.101-5.092s2.284-5.093 5.101-5.093c.272 0 .536.027.796.068l.003-.017.068.028c.407.07.798.184 1.166.344 1.57.56 4.16-.782 4.978-2.787l.605-1.485c.823-2.018.082-4.299-1.647-5.49-.373-.183-.707-.318-1.035-.54l-.062-.046a5.07 5.07 0 0 1-.682-.566 5.086 5.086 0 0 1 0-7.202 5.106 5.106 0 0 1 7.213 0c.197.197.37.409.528.628l.126.17c.164.25.3.512.417.78 1.191 1.797 3.543 2.56 5.6 1.696l1.48-.623c1.97-.83 3.056-2.897 2.743-4.922-.206-.713-.502-1.404-.502-2.189a5.097 5.097 0 0 1 5.102-5.092c2.817 0 5.1 2.28 5.1 5.092 0 .274-.011.544-.053.807.003.022-.005.058-.006.08l-.02.17a4.453 4.453 0 0 0-.124.355 4.588 4.588 0 0 0 2.641 5.608l1.487.605c1.944.789 4.128.135 5.355-1.45.394-.737.648-1.412 1.227-1.991a5.108 5.108 0 0 1 7.214 0c1.992 1.988 1.972 5.188 0 7.202-.177.18-.787.657-.787.657-2.322.978-3.4 3.704-2.421 6.023l.624 1.477c.808 1.917 2.793 2.995 4.769 2.762.87-.166 1.46-.543 2.282-.543 1.2 0 2.303.413 3.174 1.105z"/><path stroke="#E2231A" d="M43.216 71.993a12.04 12.04 0 0 1-8.613 3.608 12.05 12.05 0 0 1-9.015-4.039l-.069-.073L7.866 53.863a4.448 4.448 0 0 1 0-6.278l3.952-3.945a4.464 4.464 0 0 1 6.288 0l6.8 6.79.682.751a12.05 12.05 0 0 0 9.015 4.038c3.373 0 6.423-1.38 8.613-3.607l1.254-1.317 25.665-25.624a4.465 4.465 0 0 1 6.288 0l3.952 3.946a4.448 4.448 0 0 1 0 6.278L43.357 71.854l-.141.139z"/></g></svg>