<svg xmlns="http://www.w3.org/2000/svg" width="76" height="84"><g fill="none" fill-rule="evenodd" stroke-linecap="round" stroke-linejoin="round" stroke-width="3.5"><path stroke="#E2231A" d="M74 27.948v1.406c-.04.777-.1 1.553-.117 2.33-.132 5.896-.703 11.739-2.084 17.488-.996 4.148-2.32 8.183-4.69 11.766-6.283 9.495-14.906 16.1-25.58 20.089-3.557 1.329-3.653 1.275-7.237-.03-.123-.044-.244-.094-.366-.14-7.62-2.888-14.22-7.281-19.82-13.171-4.6-4.84-7.912-10.37-9.578-16.87-1.364-5.324-2.12-10.719-2.389-16.19-.344-7.011-.033-14.004.76-20.977.167-1.466.948-2.34 2.389-2.735 8.504-2.33 17.003-4.68 25.5-7.035C32.974 3.274 35.15 2.628 37.33 2h1.258c.263.1.52.223.79.297 10.385 2.871 20.768 5.748 31.16 8.593 1.466.401 2.337 1.23 2.473 2.74.238 2.643.48 5.287.665 7.934.15 2.125.218 4.255.323 6.384z"/><path stroke="#1CCFC9" d="M33.327 45.518c-.348-.471-.492-.73-.694-.933a1830.907 1830.907 0 0 0-8.226-8.207c-1.311-1.298-2.77-1.296-4.084-.024a87.363 87.363 0 0 0-2.44 2.444c-1.175 1.232-1.184 2.693.016 3.897 4.473 4.485 8.957 8.959 13.453 13.421 1.195 1.187 2.703 1.177 3.905-.021 7.29-7.258 14.571-14.524 21.844-21.798 1.216-1.216 1.189-2.709-.022-3.96-.693-.713-1.406-1.406-2.11-2.109-1.647-1.642-2.985-1.638-4.644.016-5.467 5.452-10.935 10.904-16.395 16.362-.2.2-.32.479-.603.912z"/></g></svg>